<svg width="24" height="24" viewBox="0 0 24 24" fill="none" xmlns="http://www.w3.org/2000/svg">
<path d="M3.75 6.00232C3.75 4.75968 4.75736 3.75232 6 3.75232H8.25C9.49264 3.75232 10.5 4.75968 10.5 6.00232V8.25232C10.5 9.49496 9.49264 10.5023 8.25 10.5023H6C4.75736 10.5023 3.75 9.49496 3.75 8.25232V6.00232Z" stroke="#0F172A" stroke-width="1.5" stroke-linecap="round" stroke-linejoin="round"/>
<path d="M3.75 15.7523C3.75 14.5097 4.75736 13.5023 6 13.5023H8.25C9.49264 13.5023 10.5 14.5097 10.5 15.7523V18.0023C10.5 19.245 9.49264 20.2523 8.25 20.2523H6C4.75736 20.2523 3.75 19.245 3.75 18.0023V15.7523Z" stroke="#0F172A" stroke-width="1.5" stroke-linecap="round" stroke-linejoin="round"/>
<path d="M13.5 6.00232C13.5 4.75968 14.5074 3.75232 15.75 3.75232H18C19.2426 3.75232 20.25 4.75968 20.25 6.00232V8.25232C20.25 9.49496 19.2426 10.5023 18 10.5023H15.75C14.5074 10.5023 13.5 9.49496 13.5 8.25232V6.00232Z" stroke="#0F172A" stroke-width="1.5" stroke-linecap="round" stroke-linejoin="round"/>
<path d="M13.5 15.7523C13.5 14.5097 14.5074 13.5023 15.75 13.5023H18C19.2426 13.5023 20.25 14.5097 20.25 15.7523V18.0023C20.25 19.245 19.2426 20.2523 18 20.2523H15.75C14.5074 20.2523 13.5 19.245 13.5 18.0023V15.7523Z" stroke="#0F172A" stroke-width="1.5" stroke-linecap="round" stroke-linejoin="round"/>
</svg>
